<svg enable-background="new 0 0 600.6 600.6" height="600.6" viewBox="0 0 600.6 600.6" width="600.6" xmlns="http://www.w3.org/2000/svg"><g clip-rule="evenodd" fill-rule="evenodd"><path d="m.6 600.6c0-199.999 0-400 0-600h600v600c-199.999 0-400 0-600 0zm568.789-299.596c-.012-148.165-119.618-267.756-266.887-268.579-149.152-.833-269.735 119.53-270.039 267.473-.306 148.727 119.708 269.459 267.434 269.491 149.146.03 269.49-119.82 269.492-268.385z" fill="#fff"/><path d="m569.389 301.004c-.002 148.565-120.346 268.415-269.492 268.385-147.726-.031-267.74-120.764-267.434-269.491.304-147.943 120.887-268.306 270.039-267.473 147.269.823 266.875 120.414 266.887 268.579zm-14.977.049c-.143-140.307-113.428-253.661-253.509-253.665-140.19-.004-253.565 113.57-253.515 253.959.05 139.736 113.832 253.185 253.808 253.064 139.77-.119 253.358-113.772 253.216-253.358z"/><path d="m554.412 301.053c.142 139.586-113.446 253.239-253.216 253.359-139.976.12-253.758-113.328-253.808-253.064-.05-140.39 113.325-253.963 253.515-253.959 140.081.003 253.366 113.357 253.509 253.664zm-147.749 207.229c88.546-44.41 147.41-149.533 120.002-262.713-26.48-109.349-132.137-190.486-255.385-175.328-107.915 13.272-198.212 103.143-203.222 221.227-2.396 56.462 14.094 107.337 48.485 152.243 21.133 27.595 47.688 48.733 78.264 65.471 13.25-26.505 26.187-52.383 39.015-78.042-50.674-28.738-76.97-71.756-79.36-129.786h73.548c-.592 6.046-1.001 11.883-3.599 17.326-1.012 2.119-2.251 3.037-4.784 3.006-12.898-.158-25.799-.073-38.699-.073-1.068 0-2.137 0-3.429 0 .36 2.022.579 3.7.961 5.338 9.691 41.453 33.897 71.059 72.603 88.773 1.57.719 2.215 1.482 2.194 3.268-.1 8.499.015 17-.097 25.498-.022 1.617-.438 3.365-1.153 4.816-10.884 22.097-21.849 44.154-32.789 66.225-.457.921-.843 1.878-1.421 3.174 4.69 1.916 9.055 3.7 13.438 5.49.597-1.087.907-1.59 1.159-2.119 10.921-22.96 21.846-45.919 32.725-68.899.445-.94.638-2.087.641-3.139.041-13.999-.016-27.999.074-41.998.013-2.003-.646-2.779-2.468-3.653-8.156-3.916-16.385-7.765-24.175-12.34-6.955-4.084-12.944-9.576-18.484-15.752.954-.727 1.684-1.414 2.527-1.904 8.799-5.117 17.369-10.707 26.484-15.182 14.924-7.325 30.782-11.743 47.521-12.293 19.973-.656 38.583 4.744 56.207 13.615 9.232 4.646 18.022 10.169 27.477 15.562-23.979 24.458-52.283 35.7-85.711 34.953v3.442c0 10.699.054 21.4-.056 32.099-.018 1.71-.467 3.567-1.235 5.096-10.62 21.12-21.332 42.194-32.019 63.281-2.458 4.85-4.906 9.704-7.561 14.957 31.334 7.006 62.113 5.844 93.132-1.101-.702-1.396-1.138-2.29-1.596-3.172-12.614-24.245-25.232-48.487-37.843-72.734-.503-.968-1.325-1.968-1.34-2.962-.11-7.966-.062-15.935-.062-23.883 71.443-3.432 119.453-64.951 118.483-122.815-22.732-3.767-45.473-7.535-68.351-11.327-.11.972-.212 1.458-.213 1.942-.021 12.1.014 24.2-.089 36.299-.017 1.891 1.026 2.318 2.403 2.815 6.371 2.302 12.724 4.658 19.089 6.975 2.113.77 4.247 1.483 6.56 2.288 1.472-4.021 2.824-7.715 4.251-11.615-6.005-2.215-11.799-4.315-17.555-6.515-.813-.31-2.045-1.081-2.063-1.67-.163-5.224-.095-10.455-.095-15.863 13.838 2.343 27.174 4.601 40.474 6.852-.707 16.688-12.045 44.472-22.229 54.619-.387-.243-.811-.48-1.204-.759-16.082-11.417-33.291-20.594-52.304-26.12-2.114-.614-2.156-1.874-2.153-3.573.03-17.599.016-35.199.024-52.799 0-.88.09-1.761.135-2.586 27.583-6.338 45.483-16.726 57.319-45.711.474.584.939 1.096 1.333 1.657 5.421 7.71 9.759 15.99 13.132 24.791.33.862 1.244 2.103 1.929 2.129 4.754.187 9.52.098 14.353.098-5.584-21.117-20.371-45.185-41.707-61.709-32.908-25.487-69.842-32.514-110.231-22.945-2.304-6.601-4.549-13.039-6.799-19.485 67.973-20.896 157.065 15.434 180.959 103.914h15.325c-11.566-45.93-37.767-80.451-78.363-104.321 3.911-6.43 7.724-12.697 11.605-19.077 37.324 21.964 64.644 52.274 80.229 92.367 18.781 48.313 16.771 96.366-3.964 143.931 4.383 2.118 8.745 4.226 13.104 6.332 33.099-68.838 24.498-165.333-46.472-229.789-34.982-31.771-76.476-48.592-123.648-50.986-26.259-1.333-51.808 2.622-76.682 11.74 1.674 4.89 3.208 9.37 4.776 13.951 48.404-16.529 95.556-14.401 142.023 6.895-3.932 6.493-7.55 12.469-11.171 18.442-.155.255-.342.491-.532.762-40.627-18.028-81.693-19.485-123.64-4.986 4.137 11.84 8.063 23.079 11.943 34.186-4.702 2.09-9.263 3.83-13.559 6.076-20.098 10.511-36.205 25.391-48.317 44.593-.629.998-1.716 2.399-2.621 2.422-7.438.197-14.884.111-22.823.111 11.926-23.948 28.594-42.978 50.306-57.677-6.237-16.358-12.463-32.686-18.69-49.019-10.333 4.208-36.563 24.054-53.948 45.909-26.604 33.444-41.671 71.458-43.417 114.135-2.678 65.45 21.982 119.232 71.192 162.48 3.113-4.444 5.846-8.349 8.735-12.474-29.134-24.972-49.218-55.612-59.047-92.581-9.815-36.917-8.354-73.552 4.585-109.532 12.938-35.977 35.435-64.75 66.595-87.352 2.519 6.527 4.778 12.584 7.211 18.57.795 1.958.603 3.065-1.188 4.476-23.859 18.8-41.23 42.386-51.864 70.881-.403 1.079-.744 2.182-1.14 3.35.663.109.956.2 1.249.2 17.4.01 34.8.05 52.198-.072 1.048-.008 2.497-1.076 3.068-2.054 7.135-12.228 16.079-22.908 27.259-31.588 26.297-20.417 55.982-27.839 88.7-21.888 23.175 4.216 42.877 15.288 59.114 32.395.602.634 1.086 1.973.84 2.729-5.761 17.703-15.677 31.935-33.925 38.504-8.199 2.952-16.729 4.985-25.541 7.561v63.499c-13.51-2.573-26.777-2.703-40.371-.361 0-21.979 0-43.538 0-64.978-5.723-.942-11.201-1.523-16.518-2.786-11.127-2.644-20.607-7.968-26.974-17.915-.882-1.379-1.09-2.408.184-3.652 4.07-3.975 7.817-8.321 12.157-11.968 8.099-6.808 17.873-10.155 28.405-12.805-.614 1.542-1.067 2.609-1.468 3.695-5.868 15.906 5.376 33.305 22.15 34.284 14.224.83 26.771-10.287 27.222-24.119.488-14.948-10.861-26.857-25.721-26.813-9.636.029-19.033 1.842-28.352 4.182-20.599 5.172-35.997 17.424-47.564 34.497 9.17 19.929 25.627 29.188 46.299 32.095v58.448c-21.019 5.634-39.926 15.337-57.56 28.077-7.816-10.272-13.708-21.265-17.54-33.747 9.904 0 19.3-.155 28.687.085 3.201.082 5.092-1.1 6.937-3.51 6.924-9.048 8.436-19.639 8.991-30.509.196-3.839.031-7.697.031-11.505-33.648 0-66.824 0-100.261 0-1.663 20.046.418 39.596 6.245 58.665 11.724 38.368 34.895 68.2 68.515 90.111-8.812 16.964-17.492 33.672-26.176 50.389-69.124-39.773-121.871-127.999-101.838-230.166 19.779-100.869 110.315-174.538 214.1-174.372 108.549.173 198.524 80.239 214.639 183.729 14.509 93.169-32.177 179.669-103.432 220.748-3.604-5.486-7.217-10.983-10.947-16.659 21.54-12.897 40.036-29.097 55.544-48.995-3.997-3.168-7.729-6.127-11.683-9.262-17.631 22.347-39.001 39.821-64.405 52.373 8.688 14.481 17.189 28.652 25.779 42.969zm-57.2-53.564c.5-.312.656-.443.836-.513.558-.217 1.122-.415 1.688-.609 32.121-11.029 58.314-30.201 78.411-57.545 18.745-25.506 28.782-54.222 30.797-85.782.091-1.417-.091-2.255-1.742-2.446-4.25-.49-8.484-1.116-12.363-1.638-7.544 73.401-46.953 119.434-118.052 138.89 12.881 26.147 25.849 52.473 38.945 79.058 4.734-1.776 9.09-3.41 13.618-5.107-10.791-21.593-21.421-42.864-32.138-64.308z" fill="#fff"/><path d="m406.663 508.282c-8.59-14.317-17.091-28.488-25.778-42.969 25.404-12.552 46.774-30.026 64.405-52.373 3.953 3.135 7.686 6.094 11.683 9.262-15.508 19.898-34.004 36.098-55.544 48.995 3.73 5.676 7.343 11.173 10.947 16.659 71.255-41.079 117.94-127.579 103.432-220.748-16.115-103.49-106.09-183.556-214.639-183.729-103.785-.166-194.321 73.503-214.1 174.372-20.034 102.167 32.713 190.393 101.841 230.163 8.684-16.717 17.364-33.425 26.176-50.389-33.621-21.911-56.791-51.744-68.515-90.111-5.826-19.068-7.907-38.618-6.245-58.665h100.261c0 3.808.165 7.667-.031 11.505-.555 10.87-2.067 21.46-8.991 30.509-1.845 2.41-3.736 3.592-6.937 3.51-9.387-.24-18.783-.085-28.687-.085 3.832 12.482 9.723 23.475 17.54 33.747 17.634-12.739 36.541-22.442 57.56-28.077 0-19.428 0-38.789 0-58.448-20.672-2.906-37.129-12.166-46.299-32.095 11.567-17.073 26.965-29.325 47.564-34.497 9.319-2.34 18.716-4.153 28.352-4.182 14.859-.045 26.209 11.865 25.721 26.813-.451 13.833-12.998 24.949-27.222 24.119-16.774-.979-28.019-18.378-22.15-34.284.4-1.086.854-2.153 1.468-3.695-10.532 2.65-20.306 5.998-28.405 12.805-4.339 3.647-8.087 7.994-12.157 11.968-1.274 1.244-1.066 2.273-.184 3.652 6.366 9.947 15.846 15.271 26.974 17.915 5.317 1.263 10.795 1.844 16.518 2.786v64.978c13.593-2.342 26.861-2.212 40.371.361 0-21.669 0-42.935 0-63.499 8.812-2.576 17.342-4.609 25.541-7.561 18.248-6.569 28.164-20.801 33.925-38.504.246-.755-.238-2.095-.84-2.729-16.237-17.107-35.939-28.179-59.114-32.395-32.718-5.952-62.402 1.471-88.7 21.888-11.18 8.68-20.124 19.36-27.259 31.588-.571.979-2.02 2.046-3.068 2.054-17.398.123-34.798.083-52.198.072-.293 0-.586-.091-1.249-.2.396-1.167.737-2.271 1.14-3.35 10.634-28.495 28.005-52.081 51.864-70.881 1.791-1.411 1.983-2.518 1.188-4.476-2.433-5.985-4.692-12.042-7.211-18.57-31.16 22.602-53.658 51.375-66.595 87.352-12.94 35.98-14.401 72.616-4.585 109.532 9.83 36.969 29.913 67.609 59.047 92.581-2.889 4.125-5.622 8.029-8.735 12.474-49.21-43.248-73.87-97.03-71.192-162.48 1.746-42.677 16.813-80.691 43.417-114.135 17.385-21.855 43.614-41.701 53.948-45.909 6.228 16.333 12.453 32.661 18.69 49.019-21.711 14.7-38.38 33.729-50.306 57.677 7.939 0 15.385.085 22.823-.111.905-.023 1.992-1.424 2.621-2.422 12.112-19.202 28.219-34.082 48.317-44.593 4.295-2.246 8.856-3.986 13.559-6.076-3.88-11.106-7.807-22.345-11.943-34.186 41.947-14.499 83.013-13.042 123.64 4.986.19-.271.377-.507.532-.762 3.621-5.974 7.239-11.949 11.171-18.442-46.467-21.296-93.619-23.424-142.023-6.895-1.568-4.581-3.102-9.061-4.776-13.951 24.874-9.118 50.422-13.072 76.682-11.74 47.173 2.394 88.666 19.215 123.648 50.986 70.97 64.456 79.57 160.951 46.472 229.789-4.359-2.106-8.722-4.214-13.104-6.332 20.734-47.564 22.745-95.618 3.964-143.931-15.586-40.093-42.905-70.403-80.229-92.367-3.882 6.38-7.694 12.646-11.605 19.077 40.597 23.87 66.797 58.391 78.363 104.321-5.327 0-10.331 0-15.325 0-23.894-88.48-112.986-124.81-180.959-103.914 2.25 6.446 4.495 12.884 6.799 19.485 40.39-9.568 77.323-2.542 110.231 22.945 21.336 16.525 36.123 40.592 41.707 61.709-4.833 0-9.599.089-14.353-.098-.685-.027-1.599-1.268-1.929-2.129-3.373-8.801-7.711-17.081-13.132-24.791-.394-.561-.859-1.072-1.333-1.657-11.836 28.985-29.736 39.373-57.319 45.711-.045.826-.135 1.706-.135 2.586-.009 17.6.006 35.2-.024 52.799-.003 1.699.039 2.958 2.153 3.573 19.013 5.525 36.222 14.703 52.304 26.12.394.279.817.516 1.204.759 10.185-10.146 21.522-37.931 22.229-54.619-13.3-2.251-26.636-4.509-40.474-6.852 0 5.408-.068 10.64.095 15.863.018.589 1.249 1.36 2.063 1.67 5.756 2.199 11.55 4.3 17.555 6.515-1.427 3.9-2.779 7.594-4.251 11.615-2.313-.805-4.446-1.519-6.56-2.288-6.365-2.317-12.718-4.673-19.089-6.975-1.377-.497-2.42-.925-2.403-2.815.103-12.099.068-24.199.089-36.299.001-.485.103-.97.213-1.942 22.878 3.792 45.618 7.56 68.351 11.327.97 57.865-47.04 119.384-118.483 122.815 0 7.948-.049 15.917.062 23.883.015.994.837 1.994 1.34 2.962 12.61 24.247 25.229 48.489 37.843 72.734.458.882.894 1.775 1.596 3.172-31.019 6.944-61.797 8.106-93.132 1.101 2.655-5.253 5.103-10.107 7.561-14.957 10.687-21.087 21.398-42.161 32.019-63.281.768-1.528 1.217-3.386 1.235-5.096.11-10.698.056-21.399.056-32.099 0-1.073 0-2.146 0-3.442 33.428.747 61.732-10.495 85.711-34.953-9.454-5.393-18.244-10.916-27.477-15.562-17.624-8.871-36.233-14.271-56.207-13.615-16.739.55-32.597 4.968-47.521 12.293-9.116 4.475-17.685 10.065-26.484 15.182-.844.491-1.573 1.178-2.527 1.904 5.541 6.176 11.529 11.667 18.484 15.752 7.79 4.575 16.019 8.424 24.175 12.34 1.821.874 2.48 1.65 2.468 3.653-.09 13.999-.033 27.999-.074 41.998-.003 1.052-.196 2.198-.641 3.139-10.879 22.98-21.803 45.939-32.725 68.899-.252.529-.562 1.032-1.159 2.119-4.383-1.79-8.748-3.574-13.438-5.49.578-1.296.964-2.253 1.421-3.174 10.939-22.07 21.905-44.128 32.789-66.225.715-1.451 1.131-3.199 1.153-4.816.112-8.498-.003-16.999.097-25.498.021-1.785-.624-2.549-2.194-3.268-38.706-17.714-62.912-47.32-72.603-88.773-.383-1.638-.602-3.315-.961-5.338h3.429c12.9 0 25.8-.085 38.699.073 2.533.031 3.772-.887 4.784-3.006 2.598-5.443 3.007-11.28 3.599-17.326-24.45 0-48.687 0-73.548 0 2.39 58.03 28.686 101.048 79.36 129.786-12.828 25.659-25.764 51.537-39.015 78.042-30.576-16.737-57.131-37.876-78.264-65.471-34.391-44.906-50.881-95.781-48.485-152.243 5.006-118.081 95.303-207.952 203.218-221.224 123.249-15.158 228.905 65.979 255.385 175.328 27.408 113.181-31.456 218.303-120.002 262.713zm-129.788 10.283c16.266 1.78 31.951 1.173 47.988-.842-8.115-15.594-15.985-30.717-24.087-46.285-8.029 15.833-15.813 31.18-23.901 47.127zm23.966-267.052c8.667.021 15.417-6.65 15.463-15.279.046-8.542-6.634-15.511-14.896-15.542-9.147-.035-15.923 6.531-15.919 15.425.005 8.646 6.715 15.375 15.352 15.396z"/><path d="m349.463 454.718c10.717 21.444 21.347 42.715 32.138 64.307-4.528 1.697-8.884 3.331-13.618 5.107-13.097-26.585-26.064-52.91-38.945-79.058 71.099-19.456 110.508-65.489 118.052-138.89 3.879.522 8.113 1.148 12.363 1.638 1.651.19 1.833 1.028 1.742 2.446-2.015 31.56-12.052 60.276-30.797 85.782-20.097 27.344-46.29 46.516-78.411 57.545-.565.194-1.13.393-1.688.609-.18.07-.336.202-.836.514z"/><g fill="#fff"><path d="m276.875 518.565c8.087-15.947 15.871-31.295 23.9-47.127 8.102 15.568 15.972 30.691 24.087 46.285-16.036 2.015-31.721 2.623-47.987.842z"/><path d="m300.841 251.513c-8.638-.021-15.347-6.75-15.352-15.396-.004-8.894 6.772-15.46 15.919-15.425 8.262.032 14.942 7.001 14.896 15.542-.045 8.628-6.796 15.299-15.463 15.279z"/></g></g></svg>